<svg width="1283" height="288" viewBox="0 0 1283 288" fill="none" xmlns="http://www.w3.org/2000/svg">
<g clip-path="url(#clip0_15_17)">
<path d="M121.913 0.880362C113.701 1.8994 99.1949 5.43607 90.623 8.61307C58.5532 20.362 29.6605 45.9578 14.6147 75.8696C5.20355 94.6319 0.88762 111.596 0.108355 132.816C-1.2104 170.221 9.51948 203.789 31.6986 231.303C37.1534 238.077 48.4827 249.886 49.5018 249.886C49.8614 249.886 55.9157 245.749 62.9291 240.714C69.9425 235.679 78.2746 229.745 81.3917 227.587C84.5088 225.369 90.623 220.993 94.879 217.876C99.1949 214.759 106.988 209.124 112.263 205.348C117.538 201.631 124.311 196.776 127.248 194.618C130.246 192.52 140.496 185.207 150.027 178.433C159.618 171.719 175.383 160.51 185.094 153.556C213.867 133.056 215.425 131.977 230.891 121.007C239.103 115.252 251.451 106.441 258.465 101.525C265.478 96.5501 273.391 91.0353 276.088 89.237C278.786 87.4387 280.944 85.7603 281.003 85.4606C281.003 85.2208 254.269 85.041 221.599 85.041H162.195L158.239 81.3844C149.967 73.7716 143.613 70.0551 134.502 67.4176C124.311 64.4204 113.761 64.7202 102.672 68.3168C94.879 70.7744 90.3832 73.6517 83.4897 80.5452C76.6562 87.3188 73.659 92.2941 70.8417 101.525C69.2831 106.441 69.1632 107.76 69.1632 116.811C69.1033 126.462 69.1632 126.822 71.0814 132.336C74.4383 141.987 80.7923 151.039 87.9855 156.494C91.9418 159.431 101.892 164.286 106.868 165.665C112.143 167.104 125.51 167.523 130.845 166.384C137.559 164.886 137.799 164.586 123.352 175.256C97.3966 194.318 91.8219 198.334 90.9827 198.334C90.5031 198.334 87.8057 197.135 84.9883 195.757C63.049 184.727 46.3847 166.025 39.1915 144.385C36.1344 135.214 35.0554 128.26 34.9955 117.41C34.9955 104.223 36.6139 95.4711 41.1696 83.962C52.439 55.7886 76.9559 36.3669 107.767 31.3316C114.72 30.1927 131.025 30.5524 137.439 31.991C143.793 33.4297 153.264 36.7266 158.539 39.424C173.285 46.7971 187.252 59.7448 195.464 73.5918C197.083 76.2892 198.581 78.4472 198.881 78.4472C199.36 78.4472 209.131 71.6136 227.054 58.7857C237.724 51.1729 257.386 37.2061 269.314 28.814C275.609 24.4381 280.824 20.6018 280.884 20.2421C281.003 19.9424 268.056 19.7026 246.896 19.7026H212.668L205.535 16.106C189.11 7.8338 171.367 2.319 155.602 0.580644C147.689 -0.318508 130.605 -0.138677 121.913 0.880362Z" fill="#FF4500"/>
<path d="M277.475 117.262C272.2 121.878 264.407 127.453 258.473 130.869C254.936 132.907 253.797 133.927 253.557 135.125C251.04 147.414 246.364 161.68 241.568 171.511C238.332 178.225 230.539 190.693 225.144 197.886C220.289 204.36 207.521 218.147 202.246 222.763C189.178 234.092 174.252 244.282 160.765 250.936C150.934 255.852 142.062 259.508 141.043 259.208C140.684 259.088 142.122 257.95 144.22 256.631C154.83 250.097 169.277 237.809 178.688 227.378C189.418 215.39 196.971 204.6 203.564 191.892C208.959 181.522 215.733 164.078 214.714 163.059C214.534 162.879 204.583 169.653 192.595 178.225C167.059 196.448 163.942 198.665 151.054 207.777C145.719 211.553 130.074 222.643 116.347 232.354C102.62 242.065 86.6147 253.394 80.7402 257.47C74.9257 261.546 65.8143 267.96 60.5392 271.677C55.2642 275.393 48.7304 280.009 46.0329 281.927C43.3355 283.845 41.0576 285.583 41.0576 285.823C41.0576 286.123 57.9017 286.303 78.4623 286.303C103.818 286.303 117.426 286.543 120.603 287.022C123.18 287.382 131.332 287.681 138.765 287.741C149.855 287.741 153.811 287.502 160.885 286.423C191.096 281.687 216.033 270.058 237.972 250.517C269.802 222.223 287.965 177.086 285.028 133.567C284.428 124.635 282.87 114.505 282.03 113.965C281.791 113.845 279.752 115.344 277.475 117.262Z" fill="#A0A0A0"/>
</g>
<path d="M409.657 70.5827V179.187C409.657 181.351 410.247 183.023 411.427 184.204C412.608 185.187 414.477 185.679 417.035 185.679H423.822V219.618H401.393C385.654 219.618 374.439 216.273 367.75 209.584C361.257 202.895 358.011 194.041 358.011 183.023V66.7462C358.011 55.7284 361.257 46.8748 367.75 40.1854C374.439 33.4961 385.654 30.1514 401.393 30.1514H425.003V64.0901H417.035C414.477 64.0901 412.608 64.6803 411.427 65.8608C410.247 66.8446 409.657 68.4185 409.657 70.5827ZM486.683 114.851V147.609H420.281V114.851H486.683ZM435.037 95.0777V70.5827C435.037 68.4185 434.447 66.8446 433.266 65.8608C432.086 64.6803 430.217 64.0901 427.659 64.0901H419.691V30.1514H443.3C459.04 30.1514 470.156 33.4961 476.649 40.1854C483.338 46.8748 486.683 55.7284 486.683 66.7462V95.0777H435.037ZM435.037 179.187V137.575H486.683V183.023C486.683 194.041 483.338 202.895 476.649 209.584C470.156 216.273 459.04 219.618 443.3 219.618H420.871V185.679H427.659C430.217 185.679 432.086 185.187 433.266 184.204C434.447 183.023 435.037 181.351 435.037 179.187ZM592.926 70.8779V114.556H576.104C563.709 114.556 557.511 121.245 557.511 134.624V142.592H555.741V103.931C555.741 97.2419 557.019 91.4378 559.577 86.5192C562.135 81.6005 565.873 77.764 570.792 75.0095C575.71 72.2551 581.613 70.8779 588.499 70.8779H592.926ZM557.511 219.618H507.341V72.3535H556.626V106.292L557.511 100.39V219.618ZM676.739 151.445V113.67C676.739 111.506 676.149 109.932 674.969 108.948C673.788 107.768 671.919 107.178 669.361 107.178H664.935V72.3535H684.117C699.857 72.3535 710.776 75.6981 716.876 82.3875C722.975 89.0769 726.024 97.9305 726.024 108.948V151.445H676.739ZM676.739 178.301V147.609H726.024V183.023C726.024 194.041 722.975 202.895 716.876 209.584C710.776 216.273 699.857 219.618 684.117 219.618H664.935V184.794H669.361C671.919 184.794 673.788 184.302 674.969 183.318C676.149 182.138 676.739 180.466 676.739 178.301ZM654.015 113.67V151.445H604.73V108.948C604.73 97.9305 607.78 89.0769 613.879 82.3875C619.978 75.6981 630.897 72.3535 646.637 72.3535H665.82V107.178H661.393C658.835 107.178 656.966 107.768 655.786 108.948C654.605 109.932 654.015 111.506 654.015 113.67ZM654.015 147.609V178.301C654.015 180.466 654.605 182.138 655.786 183.318C656.966 184.302 658.835 184.794 661.393 184.794H665.82V219.618H646.637C630.897 219.618 619.978 216.273 613.879 209.584C607.78 202.895 604.73 194.041 604.73 183.023V147.609H654.015ZM889.226 72.3535H935.264L903.686 219.618H853.811L835.809 132.853L817.512 219.618H767.636L737.829 72.3535H784.458L795.378 165.316L814.56 72.3535H858.533L875.65 164.726L889.226 72.3535ZM1086.37 176.235V30.1514H1138.01V183.023C1138.01 194.041 1134.67 202.895 1127.98 209.584C1121.49 216.273 1110.37 219.618 1094.63 219.618H1069.25V182.728H1078.99C1081.55 182.728 1083.41 182.236 1084.6 181.253C1085.78 180.072 1086.37 178.4 1086.37 176.235ZM1059.21 30.1514V176.235C1059.21 178.4 1059.81 180.072 1060.99 181.253C1062.17 182.236 1064.04 182.728 1066.59 182.728H1076.33V219.618H1050.95C1035.21 219.618 1024 216.273 1017.31 209.584C1010.82 202.895 1007.57 194.041 1007.57 183.023V30.1514H1059.21ZM1282.33 148.789H1232.15V115.736C1232.15 113.572 1231.56 111.998 1230.38 111.014C1229.2 109.834 1227.33 109.243 1224.78 109.243H1219.76C1217.2 109.243 1215.23 109.932 1213.86 111.309C1212.48 112.686 1211.79 114.949 1211.79 118.097V126.065H1210.02V99.5044C1210.02 91.2411 1212.28 84.6501 1216.81 79.7314C1221.53 74.8128 1228.51 72.3535 1237.76 72.3535H1243.07C1257.04 72.3535 1267.08 75.6981 1273.18 82.3875C1279.28 89.0769 1282.33 97.9305 1282.33 108.948V148.789ZM1211.79 257.688H1161.62V72.3535H1210.91V100.39H1211.79V257.688ZM1232.15 143.182H1282.33V183.023C1282.33 194.041 1279.28 202.895 1273.18 209.584C1267.08 216.273 1257.04 219.618 1243.07 219.618H1237.76C1228.51 219.618 1221.53 217.159 1216.81 212.24C1212.28 207.321 1210.02 200.73 1210.02 192.467V165.906H1211.79V173.875C1211.79 177.022 1212.48 179.285 1213.86 180.662C1215.23 182.04 1217.2 182.728 1219.76 182.728H1224.78C1227.33 182.728 1229.2 182.236 1230.38 181.253C1231.56 180.072 1232.15 178.4 1232.15 176.235V143.182Z" fill="#FFFFFF"/>
<defs>
<clipPath id="clip0_15_17">
<rect width="285.583" height="287.741" fill="white"/>
</clipPath>
</defs>
</svg>
