<svg width="1089" height="952" viewBox="0 0 1089 952" fill="none" xmlns="http://www.w3.org/2000/svg">
<g clip-path="url(#clip0_15_4)">
<path d="M505.298 1.66885C489.73 3.60058 462.232 10.3048 445.982 16.3273C385.19 38.599 330.419 87.1196 301.898 143.822C284.058 179.388 275.876 211.546 274.399 251.771C271.899 322.677 292.239 386.311 334.283 438.468C344.623 451.308 366.099 473.693 368.031 473.693C368.713 473.693 380.19 465.853 393.485 456.308C406.779 446.763 422.574 435.513 428.483 431.422C434.392 427.218 445.982 418.923 454.05 413.014C462.232 407.105 477.004 396.424 487.003 389.265C497.003 382.22 509.843 373.016 515.411 368.925C521.093 364.948 540.524 351.085 558.591 338.245C576.772 325.518 606.657 304.269 625.065 291.088C679.608 252.226 682.563 250.18 711.879 229.386C727.447 218.477 750.855 201.774 764.15 192.456C777.445 183.024 792.444 172.57 797.557 169.161C802.671 165.752 806.762 162.571 806.875 162.003C806.875 161.548 756.196 161.207 694.267 161.207H581.658L574.158 154.276C558.477 139.845 546.432 132.799 529.16 127.8C509.843 122.118 489.844 122.686 468.822 129.504C454.05 134.163 445.528 139.617 432.46 152.685C419.506 165.525 413.825 174.957 408.484 192.456C405.53 201.774 405.302 204.273 405.302 221.432C405.189 239.726 405.302 240.408 408.938 250.862C415.302 269.157 427.347 286.315 440.982 296.656C448.482 302.224 467.345 311.428 476.776 314.041C486.776 316.768 512.116 317.564 522.229 315.405C534.956 312.564 535.41 311.996 508.025 332.222C458.823 368.357 448.255 375.97 446.664 375.97C445.755 375.97 440.642 373.698 435.301 371.084C393.712 350.176 362.122 314.723 348.487 273.702C342.691 256.317 340.646 243.135 340.532 222.568C340.532 197.569 343.6 180.979 352.236 159.162C373.599 105.755 420.074 68.9386 478.481 59.3935C491.662 57.2346 522.57 57.9163 534.728 60.6435C546.773 63.3706 564.727 69.6204 574.727 74.7338C602.68 88.7104 629.156 113.255 644.723 139.504C647.791 144.617 650.632 148.708 651.2 148.708C652.109 148.708 670.631 135.754 704.607 111.437C724.833 97.0055 762.104 70.5294 784.717 54.621C796.648 46.3259 806.534 39.0535 806.648 38.3718C806.875 37.8036 782.331 37.3491 742.219 37.3491H677.336L663.813 30.5312C632.678 14.8501 599.044 4.396 569.159 1.10069C554.159 -0.603776 521.774 -0.262882 505.298 1.66885Z" fill="#FF4500"/>
<path d="M800.186 222.287C790.187 231.037 775.415 241.604 764.165 248.081C757.461 251.945 755.302 253.877 754.848 256.149C750.075 279.444 741.212 306.488 732.121 325.123C725.985 337.85 711.213 361.485 700.986 375.121C691.782 387.393 667.579 413.529 657.579 422.278C632.808 443.754 604.513 463.072 578.946 475.685C560.311 485.003 543.493 491.934 541.562 491.366C540.88 491.139 543.607 488.98 547.584 486.48C567.697 474.094 595.082 450.8 612.922 431.028C633.262 408.302 647.58 387.848 660.079 363.758C670.306 344.1 683.146 311.033 681.215 309.101C680.874 308.761 662.011 321.601 639.285 337.85C590.878 372.394 584.969 376.598 560.538 393.87C550.425 401.029 520.767 422.051 494.746 440.459C468.724 458.867 438.384 480.344 427.249 488.071C416.226 495.798 398.954 507.956 388.955 515.001C378.955 522.046 366.569 530.796 361.456 534.432C356.343 538.068 352.025 541.364 352.025 541.818C352.025 542.386 383.955 542.727 422.931 542.727C470.997 542.727 496.791 543.182 502.813 544.091C507.7 544.773 523.153 545.341 537.244 545.455C558.265 545.455 565.765 545 579.174 542.955C636.444 533.978 683.714 511.933 725.303 474.889C785.642 421.256 820.072 335.691 814.504 253.195C813.368 236.264 810.413 217.06 808.822 216.037C808.368 215.81 804.504 218.651 800.186 222.287Z" fill="#A0A0A0"/>
</g>
<path d="M60.7991 731.037V858.888C60.7991 861.436 61.4939 863.405 62.8836 864.795C64.2733 865.953 66.4737 866.532 69.4847 866.532H77.4754V906.485H51.0712C32.542 906.485 19.3399 902.548 11.465 894.673C3.82166 886.798 0 876.375 0 863.405V726.52C0 713.55 3.82166 703.127 11.465 695.252C19.3399 687.377 32.542 683.44 51.0712 683.44H78.8651V723.393H69.4847C66.4737 723.393 64.2733 724.088 62.8836 725.478C61.4939 726.636 60.7991 728.489 60.7991 731.037ZM151.477 783.15V821.714H73.3063V783.15H151.477ZM90.6775 759.873V731.037C90.6775 728.489 89.9826 726.636 88.5929 725.478C87.2032 724.088 85.0029 723.393 81.9919 723.393H72.6115V683.44H100.405C118.935 683.44 132.021 687.377 139.664 695.252C147.539 703.127 151.477 713.55 151.477 726.52V759.873H90.6775ZM90.6775 858.888V809.902H151.477V863.405C151.477 876.375 147.539 886.798 139.664 894.673C132.021 902.548 118.935 906.485 100.405 906.485H74.0012V866.532H81.9919C85.0029 866.532 87.2032 865.953 88.5929 864.795C89.9826 863.405 90.6775 861.436 90.6775 858.888ZM276.549 731.384V782.803H256.746C242.154 782.803 234.858 790.678 234.858 806.427V815.808H232.773V770.295C232.773 762.42 234.279 755.588 237.29 749.797C240.301 744.007 244.702 739.491 250.492 736.248C256.282 733.005 263.231 731.384 271.337 731.384H276.549ZM234.858 906.485H175.796V733.121H233.816V773.075L234.858 766.126V906.485ZM375.217 826.231V781.76C375.217 779.213 374.522 777.36 373.132 776.202C371.742 774.812 369.542 774.117 366.531 774.117H361.32V733.121H383.902C402.431 733.121 415.286 737.059 422.466 744.934C429.646 752.808 433.236 763.231 433.236 776.202V826.231H375.217ZM375.217 857.846V821.714H433.236V863.405C433.236 876.375 429.646 886.798 422.466 894.673C415.286 902.548 402.431 906.485 383.902 906.485H361.32V865.489H366.531C369.542 865.489 371.742 864.91 373.132 863.752C374.522 862.363 375.217 860.394 375.217 857.846ZM348.465 781.76V826.231H290.445V776.202C290.445 763.231 294.035 752.808 301.215 744.934C308.396 737.059 321.25 733.121 339.779 733.121H362.362V774.117H357.151C354.14 774.117 351.939 774.812 350.55 776.202C349.16 777.36 348.465 779.213 348.465 781.76ZM348.465 821.714V857.846C348.465 860.394 349.16 862.363 350.55 863.752C351.939 864.91 354.14 865.489 357.151 865.489H362.362V906.485H339.779C321.25 906.485 308.396 902.548 301.215 894.673C294.035 886.798 290.445 876.375 290.445 863.405V821.714H348.465ZM625.362 733.121H679.56L642.385 906.485H583.671L562.478 804.343L540.938 906.485H482.223L447.134 733.121H502.026L514.881 842.559L537.464 733.121H589.23L609.38 841.865L625.362 733.121ZM857.441 855.414V683.44H918.24V863.405C918.24 876.375 914.303 886.798 906.428 894.673C898.784 902.548 885.698 906.485 867.169 906.485H837.29V863.057H848.755C851.766 863.057 853.967 862.478 855.356 861.32C856.746 859.931 857.441 857.962 857.441 855.414ZM825.478 683.44V855.414C825.478 857.962 826.173 859.931 827.563 861.32C828.952 862.478 831.153 863.057 834.164 863.057H845.629V906.485H815.75C797.221 906.485 784.019 902.548 776.144 894.673C768.501 886.798 764.679 876.375 764.679 863.405V683.44H825.478ZM1088.13 823.104H1029.07V784.192C1029.07 781.645 1028.37 779.792 1026.98 778.634C1025.59 777.244 1023.39 776.549 1020.38 776.549H1014.48C1011.47 776.549 1009.15 777.36 1007.53 778.981C1005.91 780.602 1005.1 783.266 1005.1 786.972V796.352H1003.01V765.084C1003.01 755.356 1005.67 747.597 1011 741.807C1016.56 736.016 1024.78 733.121 1035.67 733.121H1041.92C1058.37 733.121 1070.18 737.059 1077.36 744.934C1084.54 752.808 1088.13 763.231 1088.13 776.202V823.104ZM1005.1 951.303H946.034V733.121H1004.05V766.126H1005.1V951.303ZM1029.07 816.503H1088.13V863.405C1088.13 876.375 1084.54 886.798 1077.36 894.673C1070.18 902.548 1058.37 906.485 1041.92 906.485H1035.67C1024.78 906.485 1016.56 903.59 1011 897.8C1005.67 892.009 1003.01 884.25 1003.01 874.522V843.254H1005.1V852.635C1005.1 856.341 1005.91 859.004 1007.53 860.625C1009.15 862.247 1011.47 863.057 1014.48 863.057H1020.38C1023.39 863.057 1025.59 862.478 1026.98 861.32C1028.37 859.931 1029.07 857.962 1029.07 855.414V816.503Z" fill="#0A0A0A"/>
<defs>
<clipPath id="clip0_15_4">
<rect width="541.364" height="545.455" fill="white" transform="translate(274.194)"/>
</clipPath>
</defs>
</svg>
