<svg width="518" height="522" viewBox="0 0 518 522" fill="none" xmlns="http://www.w3.org/2000/svg">
<g clip-path="url(#clip0_15_30)">
<path d="M221.056 1.59629C206.166 3.44404 179.862 9.85679 164.32 15.6174C106.17 36.9208 53.781 83.3318 26.4996 137.568C9.43519 171.589 1.60945 202.348 0.196471 240.825C-2.19473 308.648 17.2609 369.515 57.4765 419.404C67.3674 431.686 87.91 453.098 89.7577 453.098C90.4098 453.098 101.388 445.598 114.104 436.468C126.821 427.338 141.929 416.578 147.581 412.665C153.233 408.643 164.32 400.709 172.037 395.057C179.862 389.405 193.992 379.188 203.557 372.341C213.122 365.602 225.404 356.798 230.73 352.885C236.164 349.081 254.75 335.821 272.032 323.538C289.423 311.365 318.008 291.04 335.616 278.432C387.788 241.26 390.614 239.303 418.656 219.413C433.547 208.978 455.937 193.001 468.654 184.088C481.371 175.067 495.718 165.067 500.609 161.807C505.5 158.546 509.413 155.502 509.522 154.959C509.522 154.524 461.045 154.198 401.809 154.198H294.096L286.923 147.568C271.923 133.764 260.402 127.025 243.881 122.243C225.404 116.809 206.274 117.352 186.166 123.873C172.037 128.33 163.885 133.547 151.385 146.046C138.995 158.328 133.56 167.35 128.452 184.088C125.626 193.001 125.408 195.392 125.408 211.804C125.3 229.304 125.408 229.956 128.886 239.955C134.973 257.454 146.494 273.867 159.537 283.758C166.711 289.083 184.753 297.887 193.775 300.387C203.34 302.996 227.578 303.757 237.251 301.692C249.424 298.974 249.859 298.431 223.665 317.778C176.602 352.342 166.493 359.624 164.972 359.624C164.102 359.624 159.211 357.45 154.103 354.95C114.322 334.951 84.1058 301.039 71.0629 261.802C65.5196 245.172 63.5632 232.564 63.4545 212.891C63.4545 188.979 66.3892 173.11 74.6497 152.242C95.0835 101.157 139.538 65.9412 195.405 56.8112C208.013 54.7461 237.577 55.3982 249.207 58.0068C260.728 60.6154 277.901 66.5934 287.466 71.4845C314.204 84.8534 339.529 108.331 354.42 133.438C357.354 138.329 360.072 142.242 360.615 142.242C361.485 142.242 379.201 129.851 411.7 106.592C431.047 92.7879 466.697 67.4629 488.327 52.2462C499.739 44.3118 509.196 37.3556 509.304 36.7034C509.522 36.16 486.044 35.7252 447.677 35.7252H385.614L372.68 29.2038C342.899 14.2044 310.726 4.20487 282.14 1.05284C267.793 -0.577525 236.816 -0.251452 221.056 1.59629Z" fill="#FF4500"/>
<path d="M503.124 212.623C493.559 220.992 479.429 231.1 468.669 237.295C462.256 240.991 460.191 242.839 459.756 245.012C455.191 267.294 446.713 293.162 438.018 310.988C432.148 323.161 418.019 345.769 408.237 358.812C399.433 370.55 376.281 395.549 366.717 403.918C343.022 424.461 315.958 442.938 291.503 455.003C273.677 463.916 257.591 470.546 255.743 470.002C255.091 469.785 257.7 467.72 261.504 465.329C280.742 453.481 306.937 431.2 324.001 412.287C343.457 390.549 357.152 370.985 369.108 347.943C378.89 329.139 391.172 297.51 389.324 295.662C388.998 295.336 370.956 307.618 349.217 323.161C302.915 356.203 297.263 360.225 273.895 376.746C264.221 383.593 235.853 403.701 210.963 421.309C186.072 438.917 157.052 459.459 146.4 466.85C135.857 474.241 119.336 485.871 109.772 492.61C100.207 499.349 88.3594 507.718 83.4684 511.196C78.5773 514.674 74.447 517.826 74.447 518.261C74.447 518.804 104.989 519.131 142.27 519.131C188.246 519.131 212.919 519.565 218.68 520.435C223.353 521.087 238.135 521.63 251.613 521.739C271.721 521.739 278.894 521.304 291.72 519.348C346.5 510.761 391.715 489.675 431.496 454.242C489.211 402.94 522.144 321.096 516.819 242.186C515.732 225.991 512.906 207.623 511.384 206.645C510.949 206.427 507.254 209.144 503.124 212.623Z" fill="#A0A0A0"/>
</g>
<defs>
<clipPath id="clip0_15_30">
<rect width="517.826" height="521.739" fill="white"/>
</clipPath>
</defs>
</svg>
